<?xml version="1.0" encoding="UTF-8" standalone="no"?>
<svg
        viewBox="0 0 512 512"
        version="1.1"
        id="svg1"
        sodipodi:docname="de.z_ray.OptimusUI.svg"
        xml:space="preserve"
        inkscape:version="1.3.2 (091e20ef0f, 2023-11-25)"
        width="512"
        height="512"
        xmlns:inkscape="http://www.inkscape.org/namespaces/inkscape"
        xmlns:sodipodi="http://sodipodi.sourceforge.net/DTD/sodipodi-0.dtd"
        xmlns:xlink="http://www.w3.org/1999/xlink"
        xmlns="http://www.w3.org/2000/svg"
        xmlns:svg="http://www.w3.org/2000/svg"><defs
     id="defs1"><linearGradient
       id="linearGradient11"
       inkscape:collect="always"><stop
         style="stop-color:#ffffff;stop-opacity:1;"
         offset="0"
         id="stop11" /><stop
        style="stop-color:#ffffff;stop-opacity:1;"
        offset="1"
        id="stop12"/></linearGradient><radialGradient
        inkscape:collect="always"
        xlink:href="#linearGradient11"
        id="radialGradient12"
        cx="383.24402"
        cy="255.99956"
        fx="383.24402"
        fy="255.99956"
        r="115.85038"
        gradientTransform="matrix(0.88888889,0,0,0.88897929,0,28.421304)"
        gradientUnits="userSpaceOnUse"/></defs>
    <sodipodi:namedview
            id="namedview1"
            pagecolor="#505050"
            bordercolor="#ffffff"
            borderopacity="1"
            inkscape:showpageshadow="0"
            inkscape:pageopacity="0"
            inkscape:pagecheckerboard="1"
            inkscape:deskcolor="#505050"
            inkscape:zoom="0.68086649"
            inkscape:cx="223.9793"
            inkscape:cy="262.16594"
            inkscape:window-width="1366"
            inkscape:window-height="699"
            inkscape:window-x="0"
            inkscape:window-y="0"
            inkscape:window-maximized="1"
            inkscape:current-layer="svg1"
            showguides="false"><sodipodi:guide
       position="-0.42582585,0.72174703"
       orientation="1,0"
       id="guide10"
       inkscape:locked="false" /></sodipodi:namedview>
    <path
            d="M 170.66667,85.333335 C 76.444444,85.333335 0,161.77777 0,256 0,350.22222 76.444444,426.66666 170.66667,426.66666 H 341.33333 C 435.55556,426.66666 512,350.22222 512,256 512,161.77777 435.55556,85.333335 341.33333,85.333335 Z m 170.66666,85.333325 a 85.333335,85.333335 0 1 1 0,170.66668 85.333335,85.333335 0 1 1 0,-170.66668 z"
            id="path1"
            style="display:inline;fill:#fefefe;fill-opacity:1;stroke-width:0.888889"/>
    <path
            id="path5"
            style="display:inline;fill:#6c6c6c;fill-opacity:1;stroke-width:0.888889"
            d="m 267.91146,172.47744 c -34.10144,0.026 -68.20397,-0.004 -102.30428,0.2714 -10.35595,0.44103 -20.56145,3.12283 -29.96308,7.4456 -1.44345,0.66875 -3.03218,1.46335 -4.49549,2.25175 -16.72724,8.99508 -30.23384,23.84135 -37.536308,41.38061 -2.6844,6.41219 -4.558418,13.16354 -5.548066,20.04474 -0.13768,0.98799 -0.289702,2.19876 -0.400136,3.278 -0.651982,6.13175 -0.601731,12.33215 0.07201,18.45983 0.104731,0.87649 0.239477,1.98238 0.388571,2.94655 0.457293,3.09749 1.134334,6.29304 1.929143,9.23575 1.381289,5.10128 3.250391,10.07019 5.579858,14.81423 0.205698,0.39766 0.471947,0.95234 0.699262,1.38248 1.46896,2.84739 3.104454,5.60847 4.877126,8.27724 0.40649,0.59666 0.96024,1.41224 1.44017,2.07984 8.04202,11.31835 18.92874,20.59706 31.40667,26.69407 9.04803,4.45551 18.92678,7.24866 28.98476,8.06465 0.39429,0.0284 1.1207,0.081 1.6426,0.11371 7.82648,0.33299 15.66342,0.20658 23.49486,0.27306 36.46166,0.0633 72.92343,0.0167 109.3851,-0.0188 16.69976,-0.0348 33.40151,-0.0537 50.0993,-0.26936 6.17196,-0.41346 12.29272,-1.56057 18.20279,-3.38508 1.20678,-0.37077 2.60021,-0.83439 3.86133,-1.29449 8.26407,-2.99055 16.16423,-7.3814 23.11609,-12.85344 1.36177,-1.07141 2.67719,-2.1738 3.92393,-3.28286 1.07816,-0.95566 2.29224,-2.0971 3.37491,-3.17778 7.63586,-7.61399 13.83156,-16.67998 18.06922,-26.59975 0.13211,-0.33243 0.40721,-0.98657 0.59405,-1.44212 0.92493,-2.28524 1.7874,-4.74226 2.47193,-7.02144 0.68486,-2.28275 1.282,-4.63391 1.75868,-6.89582 0.25452,-1.19419 0.50702,-2.60501 0.71472,-3.89097 2.61213,-16.28206 0.36592,-33.34882 -6.58104,-48.32083 -0.25345,-0.53624 -0.63743,-1.33127 -0.94098,-1.96702 -9.12322,-18.40097 -25.18161,-33.31003 -44.3425,-40.77425 -7.56206,-2.97592 -15.56185,-4.8537 -23.66791,-5.4688 -0.76449,-0.0517 -1.78688,-0.12435 -2.65071,-0.157 -0.95507,-0.0423 -2.10804,-0.079 -3.09985,-0.099 -9.09767,-0.15058 -18.1974,-0.07 -27.29597,-0.10192 -15.75359,-0.004 -31.50717,0.004 -47.26076,0.007 z"/>
    <path
            id="path2"
            style="display:inline;fill:url(#radialGradient12);fill-opacity:1;stroke:#9f9f9f;stroke-width:17.7778;stroke-linecap:round;stroke-linejoin:round;stroke-dasharray:none;stroke-opacity:1"
            d="m 338.95833,163.49132 c -23.43949,0.41675 -46.62113,10.09248 -63.25288,26.64301 -15.61173,15.34273 -25.5167,36.38712 -27.2369,58.22138 -1.65788,19.8269 3.24694,40.17093 13.93284,56.97119 9.84929,15.63576 24.46427,28.25037 41.45712,35.54423 16.94209,7.36067 36.11596,9.51994 54.25431,5.97479 18.00956,-3.4499 34.9419,-12.3733 47.89043,-25.36851 12.81433,-12.76674 21.77783,-29.36128 25.31485,-47.1089 3.55737,-17.47643 1.96697,-35.98682 -4.6847,-52.54713 -6.81916,-17.16787 -18.87452,-32.23488 -34.23429,-42.51853 -15.10331,-10.20426 -33.26871,-15.82982 -51.50462,-15.82251 -0.64536,-0.007 -1.29078,0.008 -1.93616,0.0109 z"/><!--!Font Awesome Free 6.6.0 by @fontawesome - https://fontawesome.com License - https://fontawesome.com/license/free Copyright 2024 Fonticons, Inc.-->
    <style
            id="style1">
		tspan { white-space:pre }
		.shp0 { fill: #76b900 } 
	</style>
    <path
            id="Layer"
            fill-rule="evenodd"
            class="shp0"
            d="m 404.66814,212.10928 v 84.31873 h -79.86906 v -9.90024 c 1.6892,0.18742 3.3792,0.28151 5.16168,0.28151 18.48944,0 51.10375,-9.43132 65.08784,-21.16232 -2.06482,-2.06407 -12.06085,-6.80345 -14.50052,-8.77414 -14.7354,12.66889 -29.93892,23.41378 -50.96214,23.41378 -1.5959,0 -3.23844,-0.14077 -4.8335,-0.32821 v -7.03825 c 1.92408,0.32815 3.84814,0.51637 5.81887,0.51637 22.57163,0 44.25203,-26.37065 44.25203,-26.37065 0,0 -18.91173,-24.72734 -47.8653,-23.74197 l -2.25307,0.14077 v -11.35537 z m -77.7101,17.45496 c 20.83498,-0.65719 34.49091,17.92391 34.49091,17.92391 0,0 -14.73539,20.4585 -30.54947,20.4585 -2.11149,0 -4.17632,-0.32899 -6.14704,-0.98536 V 243.8757 c 8.11776,0.98537 9.76031,4.55119 14.5938,12.66895 l 10.84061,-9.10313 c 0,0 -7.93116,-10.37004 -21.25809,-10.37004 -1.40766,-0.0467 -2.81531,0.0475 -4.22379,0.18823 v -7.59809 c -23.00949,1.80296 -34.49092,18.76527 -34.49092,18.76527 0,0 8.77577,28.34058 34.49092,31.53151 v 6.56938 c -35.05397,-3.28508 -47.5363,-39.41443 -47.5363,-39.41443 0,0 22.05521,-21.58468 47.58377,-23.64869 v 6.19042 c 0.73492,-0.0458 1.46985,-0.0908 2.2056,-0.0908 z m -2.25307,43.40254 c -19.42732,-3.47172 -24.82389,-23.69533 -24.82389,-23.69533 0,0 9.33882,-10.32256 24.82389,-12.01175 v 6.56851 h -0.0467 c -8.11858,-0.98531 -14.5005,6.61603 -14.5005,6.61603 0,0 3.61325,12.80966 14.54717,16.51705 z"
            style="display:inline;stroke-width:0.0818404"/></svg>
