<?xml version="1.0" encoding="UTF-8" standalone="no"?>
<svg
   viewBox="0 0 512 512"
   version="1.1"
   id="svg1"
   sodipodi:docname="de.z_ray.OptimusUI-symbolic.svg"
   xml:space="preserve"
   inkscape:version="1.4 (e7c3feb100, 2024-10-09)"
   width="512"
   height="512"
   xmlns:inkscape="http://www.inkscape.org/namespaces/inkscape"
   xmlns:sodipodi="http://sodipodi.sourceforge.net/DTD/sodipodi-0.dtd"
   xmlns="http://www.w3.org/2000/svg"
   xmlns:svg="http://www.w3.org/2000/svg"><defs
   id="defs1" />
    <sodipodi:namedview
   id="namedview1"
   pagecolor="#505050"
   bordercolor="#ffffff"
   borderopacity="1"
   inkscape:showpageshadow="0"
   inkscape:pageopacity="0"
   inkscape:pagecheckerboard="1"
   inkscape:deskcolor="#505050"
   inkscape:zoom="0.68086649"
   inkscape:cx="326.05511"
   inkscape:cy="263.63465"
   inkscape:window-width="1366"
   inkscape:window-height="768"
   inkscape:window-x="0"
   inkscape:window-y="0"
   inkscape:window-maximized="0"
   inkscape:current-layer="g1"
   showguides="false"><sodipodi:guide
     position="-0.42582585,0.72174703"
     orientation="1,0"
     id="guide10"
     inkscape:locked="false" /></sodipodi:namedview>
    
    
    <!--!Font Awesome Free 6.6.0 by @fontawesome - https://fontawesome.com License - https://fontawesome.com/license/free Copyright 2024 Fonticons, Inc.-->
    <style
   id="style1">
		tspan { white-space:pre }
		.shp0 { fill: #76b900 } 
	</style>
    <g
   id="g1"
   transform="matrix(0.9449787,0,0,0.9449787,14.085453,14.090088)"
   style="stroke:#000000;stroke-opacity:1"><path
     id="rect2896"
     style="display:inline;opacity:1;fill:#ffffff;stroke-width:0;marker:none;marker-start:none;marker-mid:none;marker-end:none;enable-background:new"
     inkscape:label="switch_background"
     transform="matrix(17.065482,0,0,17.065482,-583.83018,-2398.9623)"
     d="m 37.681713,141.94769 h 23.061586 c 1.161466,0 2.096509,0.93505 2.096509,2.09651 v 23.06159 c 0,1.16146 -0.935043,2.09651 -2.096509,2.09651 H 37.681713 c -1.161465,0 -2.096508,-0.93505 -2.096508,-2.09651 V 144.0442 c 0,-1.16146 0.935043,-2.09651 2.096508,-2.09651 z" /><path
     id="path5"
     style="display:inline;fill:#000000;fill-opacity:1;stroke:#ffffff;stroke-width:0;stroke-dasharray:none;stroke-opacity:1"
     d="m 267.91146,172.47744 c -34.10144,0.026 -68.20397,-0.004 -102.30428,0.2714 -10.35595,0.44103 -20.56145,3.12283 -29.96308,7.4456 -1.44345,0.66875 -3.03218,1.46335 -4.49549,2.25175 -16.72724,8.99508 -30.23384,23.84135 -37.536308,41.38061 -2.6844,6.41219 -4.558418,13.16354 -5.548066,20.04474 -0.13768,0.98799 -0.289702,2.19876 -0.400136,3.278 -0.651982,6.13175 -0.601731,12.33215 0.07201,18.45983 0.104731,0.87649 0.239477,1.98238 0.388571,2.94655 0.457293,3.09749 1.134334,6.29304 1.929143,9.23575 1.381289,5.10128 3.250391,10.07019 5.579858,14.81423 0.205698,0.39766 0.471947,0.95234 0.699262,1.38248 1.46896,2.84739 3.104454,5.60847 4.877126,8.27724 0.40649,0.59666 0.96024,1.41224 1.44017,2.07984 8.04202,11.31835 18.92874,20.59706 31.40667,26.69407 9.04803,4.45551 18.92678,7.24866 28.98476,8.06465 0.39429,0.0284 1.1207,0.081 1.6426,0.11371 7.82648,0.33299 15.66342,0.20658 23.49486,0.27306 36.46166,0.0633 72.92343,0.0167 109.3851,-0.0188 16.69976,-0.0348 33.40151,-0.0537 50.0993,-0.26936 6.17196,-0.41346 12.29272,-1.56057 18.20279,-3.38508 1.20678,-0.37077 2.60021,-0.83439 3.86133,-1.29449 8.26407,-2.99055 16.16423,-7.3814 23.11609,-12.85344 1.36177,-1.07141 2.67719,-2.1738 3.92393,-3.28286 1.07816,-0.95566 2.29224,-2.0971 3.37491,-3.17778 7.63586,-7.61399 13.83156,-16.67998 18.06922,-26.59975 0.13211,-0.33243 0.40721,-0.98657 0.59405,-1.44212 0.92493,-2.28524 1.7874,-4.74226 2.47193,-7.02144 0.68486,-2.28275 1.282,-4.63391 1.75868,-6.89582 0.25452,-1.19419 0.50702,-2.60501 0.71472,-3.89097 2.61213,-16.28206 0.36592,-33.34882 -6.58104,-48.32083 -0.25345,-0.53624 -0.63743,-1.33127 -0.94098,-1.96702 -9.12322,-18.40097 -25.18161,-33.31003 -44.3425,-40.77425 -7.56206,-2.97592 -15.56185,-4.8537 -23.66791,-5.4688 -0.76449,-0.0517 -1.78688,-0.12435 -2.65071,-0.157 -0.95507,-0.0423 -2.10804,-0.079 -3.09985,-0.099 -9.09767,-0.15058 -18.1974,-0.07 -27.29597,-0.10192 -15.75359,-0.004 -31.50717,0.004 -47.26076,0.007 z"
     inkscape:label="switch_enabled" /><g
     id="g2"
     inkscape:label="nodge"><path
       id="rect1"
       style="fill:#ffffff;stroke:none;stroke-width:0;stroke-linecap:round;stroke-linejoin:round"
       inkscape:label="gpu_background"
       d="M 309.73239,196.56082 H 429.48825 V 315.4391 H 309.73239 Z" /><path
       d="m 332.99531,149.81641 c 0,-6.08722 -4.89727,-10.98448 -10.98451,-10.98448 -6.08724,0 -10.9845,4.89726 -10.9845,10.98448 v 18.30753 c -16.15639,0 -29.29199,13.13561 -29.29199,29.292 h -18.30754 c -6.08722,0 -10.98448,4.89724 -10.98448,10.9845 0,6.08724 4.89726,10.98451 10.98448,10.98451 h 18.30754 v 25.63051 h -18.30754 c -6.08722,0 -10.98448,4.89725 -10.98448,10.9845 0,6.08724 4.89726,10.98449 10.98448,10.98449 h 18.30754 v 25.63051 h -18.30754 c -6.08722,0 -10.98448,4.89727 -10.98448,10.9845 0,6.08726 4.89726,10.98451 10.98448,10.98451 h 18.30754 c 0,16.15638 13.1356,29.292 29.29199,29.292 v 18.30752 c 0,6.08723 4.89726,10.9845 10.9845,10.9845 6.08724,0 10.98451,-4.89727 10.98451,-10.9845 v -18.30752 h 25.63051 v 18.30752 c 0,6.08723 4.89726,10.9845 10.9845,10.9845 6.08724,0 10.98449,-4.89727 10.98449,-10.9845 v -18.30752 h 25.63052 v 18.30752 c 0,6.08723 4.89727,10.9845 10.98449,10.9845 6.08726,0 10.98451,-4.89727 10.98451,-10.9845 v -18.30752 c 16.15638,0 29.292,-13.13562 29.292,-29.292 h 18.30752 c 6.08723,0 10.9845,-4.89725 10.9845,-10.98451 0,-6.08723 -4.89727,-10.9845 -10.9845,-10.9845 h -18.30752 v -25.63051 h 18.30752 c 6.08723,0 10.9845,-4.89725 10.9845,-10.98449 0,-6.08725 -4.89727,-10.9845 -10.9845,-10.9845 h -18.30752 v -25.63051 h 18.30752 c 6.08723,0 10.9845,-4.89727 10.9845,-10.98451 0,-6.08726 -4.89727,-10.9845 -10.9845,-10.9845 h -18.30752 c 0,-16.15639 -13.13562,-29.292 -29.292,-29.292 v -18.30753 c 0,-6.08722 -4.89725,-10.98448 -10.98451,-10.98448 -6.08722,0 -10.98449,4.89726 -10.98449,10.98448 v 18.30753 h -25.63052 v -18.30753 c 0,-6.08722 -4.89725,-10.98448 -10.98449,-10.98448 -6.08724,0 -10.9845,4.89726 -10.9845,10.98448 v 18.30753 h -25.63051 z m -7.32299,47.59953 h 87.876 c 8.10107,0 14.64601,6.54494 14.64601,14.64602 v 87.87599 c 0,8.10108 -6.54494,14.64602 -14.64601,14.64602 h -87.876 c -8.10107,0 -14.64602,-6.54494 -14.64602,-14.64602 v -87.87599 c 0,-8.10108 6.54495,-14.64602 14.64602,-14.64602 z m 87.876,14.64602 h -87.876 v 87.87599 h 87.876 z"
       id="path1"
       style="display:inline;fill:#000000;fill-opacity:1;stroke-width:0.457688;stroke:none"
       inkscape:label="gpu" /></g></g></svg>
